<?xml version="1.0" encoding="utf-8"?>
<!-- Generator: Adobe Illustrator 25.4.1, SVG Export Plug-In . SVG Version: 6.00 Build 0)  -->
<svg version="1.1" xmlns="http://www.w3.org/2000/svg" xmlns:xlink="http://www.w3.org/1999/xlink" x="0px" y="0px"
	 viewBox="0 0 308.6 138.2" style="enable-background:new 0 0 308.6 138.2;" xml:space="preserve">
<style type="text/css">
	.st0{fill:#FFFFFF;}
	.st1{fill:#FFFFFF;stroke:#FFFFFF;stroke-width:7;stroke-linejoin:round;stroke-miterlimit:15.1181;}
	.st2{fill:none;stroke:#FFFFFF;stroke-width:7;stroke-linejoin:round;stroke-miterlimit:15.1181;}
</style>
<g id="Warstwa_1">
</g>
<g id="Warstwa_2">
	<g>
		<path class="st0" d="M166,28.4c-0.1,1.7-0.3,1.4-3.9,12.2c-3.7,10.8-6.6,22.7-8.7,35.7c-2.1,13-1.1,23,3,30.1c1.1,1.9,2.7,3.9,5,6
			c2.3,2.2,4.5,3.2,6.9,3.2c6.8,0,11.7-5.3,14.8-15.8c2.2-9.3,2.3-17.1,0.4-23.4c-3-3.2-5.8-7.3-8.6-12c-6.1-10.5-4-14,2.5-14
			c0.6,0,1.4,0.1,2.2,0.2c2.9,0.5,3.5,0.7,5.6,4.2c2.1,3.6,4,8,5.9,13.4c1.1,4,2,7,2.7,9c2,2.6,5.2,6,9.6,10.1
			c4.4,4.1,8.7,7.9,12.3,7.9c3.6,0,6.1-4.2,7.7-9.1c0.3-1.1,0.9-1.6,1.7-1.6c0.8,0,1.6,0.5,2.3,1.5c0.7,1,0.9,2.4,0.6,4.1
			c-1.5,5.7-4.7,10.3-9.9,10.3c-7.6,0-17-7.3-28.1-18.4c1.5,11,0.2,20.4-4,28.4c-4.2,8-10.6,11.9-19.3,11.9c-8.2,0-15.8-6.2-23-18.5
			c-5.6-9.7-4.9-27.8-1.4-53.9c3-22.3,6.5-30.7,13.7-31.3c2-0.2,4.7-0.1,6.5,1.9C163.9,22.1,166.2,26.3,166,28.4z"/>
		<path class="st0" d="M250.6,122.3c-1.7,0-3.4-0.2-5-0.7c-11.5-2.7-19.6-8-24.5-16c-6.2-10.4-6.7-22.4-1.3-36.1
			c5.4-13.7,13.5-20.5,24.3-20.5c3.6,0,7,0.9,10.4,2.8c3.4,1.9,5.8,4.1,7.4,6.8c5,8.3,3.2,16.3-5.3,23.8c-8.5,7.6-16.9,11.4-25,11.4
			c-1.2,0-2.4-0.1-3.5-0.4c0.1,4,1.5,8.2,4.2,12.7c4.6,7.7,10.8,11.6,18.4,11.6c7.6,0,14.6-5,20.8-14.9c5.1-7.3,8.4-15,10.2-23.2
			c0.3-1.8,1-2.7,2-2.7c1,0,1.8,0.4,2.3,1.3c0.5,0.9,0.7,2.2,0.4,3.8c-2,10.5-6.4,19.9-13.3,28.1
			C266.3,118.2,258.7,122.3,250.6,122.3z M255.8,58.1c-1.1-1.8-3.6-2.7-7.5-2.7s-7.8,2.9-11.6,8.7c-5.1,7.7-7.8,15.8-8.1,24.3
			c1.1,0.3,2.2,0.4,3.3,0.4c5.9,0,11.9-3,18.1-9c6.2-6,8.4-12.6,6.6-19.7C256.4,59.4,256.2,58.7,255.8,58.1z"/>
	</g>
	<g>
		<path id="path853_00000027594650273754024590000015441413956934996636_" class="st2" d="M72.3,14.5l47.4,27.4L72.3,69.3L24.9,41.9
			L72.3,14.5z"/>
		<path id="path855_00000108297030994789802020000010349173541598841473_" class="st1" d="M24.9,41.9l47.4,27.4V124L24.9,96.6
			L24.9,41.9z"/>
	</g>
</g>
</svg>
